<svg width="326" height="39" viewBox="0 0 326 39" fill="none" xmlns="http://www.w3.org/2000/svg">
<g clip-path="url(#clip0_320_525)">
<path d="M313.514 0.689453H12.4854C5.97824 0.689453 0.703125 5.8616 0.703125 12.2418V26.7575C0.703125 33.1376 5.97824 38.3098 12.4854 38.3098H313.514C320.021 38.3098 325.296 33.1376 325.296 26.7575V12.2418C325.296 5.8616 320.021 0.689453 313.514 0.689453Z" stroke="#00A461" stroke-width="3" stroke-miterlimit="10"/>
<path d="M26.0316 21.3753C25.3577 22.9978 24.5353 24.5815 23.6731 26.1458C23.3957 26.6316 23.3263 26.8356 23.3263 27.0203C23.3263 27.1563 23.3461 27.2923 23.3759 27.4089C23.3957 27.5255 23.3957 27.5935 23.3957 27.6615C23.3957 27.8267 23.3065 27.9336 23.1579 27.9336C23.0092 27.9336 22.9498 27.885 22.593 27.6324L20.4229 26.1652C21.9687 24.3581 23.1777 22.2691 24.1884 20.1413L26.0316 21.3753ZM22.3651 10.5419C23.6038 11.4844 24.8226 12.5143 25.8433 13.6802L24.0001 15.3805C23.0389 14.1854 21.939 13.1361 20.73 12.2131L22.3651 10.5419ZM39.4291 28.808C36.9518 26.7871 35.1086 24.4067 33.7015 21.5404C32.2051 25.0285 30.362 26.9522 27.0423 28.8274L25.1298 26.8357C27.6964 25.8543 29.5197 24.7273 30.8376 22.1331C31.9574 19.9081 32.0565 17.7123 32.1259 15.3513L34.2564 15.4194C35.0293 15.4388 35.3762 15.4388 35.3762 15.672C35.3762 15.808 35.1879 15.9052 35.0987 15.944C34.7519 16.1286 34.6825 16.4007 34.6825 17.178C34.6825 18.509 35.7131 20.8215 36.6941 22.308C37.9823 24.2803 39.5976 25.5823 41.5993 26.7968L39.4489 28.7886L39.4291 28.808ZM30.5503 14.6226C29.9458 15.7497 29.3116 16.8865 28.5882 17.9455L26.319 16.8962C28.1621 14.4672 29.3611 12.1062 30.2034 9.19141L32.3042 9.58005C32.9087 9.69664 33.0276 9.78408 33.0276 9.94925C33.0276 10.1144 32.8592 10.2213 32.4925 10.4351C32.2547 10.5711 32.1457 10.8237 32.0466 11.0763C31.8781 11.533 31.6998 11.9896 31.4818 12.4754H39.9246L41.4011 13.5053C40.539 15.5651 39.5579 17.586 38.4976 19.5778L36.2779 18.4507C37.0211 17.2168 37.7049 15.9537 38.2598 14.6226H30.5503Z" fill="#00A461"/>
<path d="M63.2517 9.78417L65.5705 9.92019C65.8777 9.93962 66.175 9.96877 66.175 10.1922C66.175 10.3574 66.0858 10.4254 65.9371 10.5614C65.6993 10.7946 65.6597 10.9015 65.6597 11.2027V14.5256H69.2171V16.9546H65.6597V24.0861H63.2517V23.2603H60.0014V24.2027H57.5439V16.9643H54.4323V25.7378H67.5425V27.9628H54.4323V28.9927H51.9549V16.9643H48.3975V14.5353H51.9549V10.0465L54.1945 10.1631C54.4719 10.1825 54.7989 10.2117 54.7989 10.5031C54.7989 10.5906 54.7296 10.6683 54.6602 10.7363C54.4521 10.9404 54.4224 11.057 54.4224 11.3096V14.545H57.5339V9.0166L59.8527 9.24979C60.0906 9.26922 60.5266 9.3178 60.5266 9.5024C60.5266 9.63843 60.4077 9.73559 60.3185 9.8036C60.0807 9.9882 59.9915 10.1242 59.9915 10.3963V14.545H63.2418V9.8036L63.2517 9.78417ZM63.2517 16.9546H60.0014V21.0353H63.2517V16.9546Z" fill="#00A461"/>
<path d="M83.1006 10.124C83.2393 10.1725 83.4771 10.2891 83.4771 10.4446C83.4771 10.5806 83.3879 10.6486 82.9817 10.7166C82.8132 10.7361 82.724 10.8818 82.6745 11.0373C82.3475 11.9991 81.8322 13.0776 81.3169 14.0589L81.6439 14.1755C81.7628 14.2241 81.8817 14.263 81.8817 14.3796C81.8817 14.4476 81.743 14.6127 81.6934 14.6516C81.416 14.9237 81.2772 15.0597 81.2772 15.5261V28.5941H78.8891V18.1882C78.3936 18.8295 77.8387 19.4222 77.2738 20.0246L75.3613 18.3534C78.0071 15.6912 79.5233 12.8542 80.6232 9.34668L83.1006 10.124ZM89.294 17.0223C89.6408 20.044 90.2552 22.7256 92.4749 25.0186C92.7523 25.3198 93.1983 25.7959 93.664 25.7959C94.4369 25.7959 94.6252 24.3093 94.6946 23.7749L96.7558 24.97C96.5477 26.3691 95.8441 28.7981 94.0406 28.7981C92.8713 28.7981 91.5137 27.671 90.7209 26.8549C88.967 25.0477 88.0553 22.8908 87.4508 20.4812C87.1932 19.4513 86.9851 18.3923 86.8463 17.3429L82.3772 17.8482L82.2385 15.5552L86.7076 14.982C86.5887 13.1262 86.5689 11.251 86.5193 9.38554L89.0165 9.40498C89.4624 9.40498 89.6507 9.45356 89.6507 9.60901C89.6507 9.67702 89.5615 9.77418 89.2543 10.0657C89.066 10.2503 89.0462 10.7069 89.0462 11.0081C89.0462 12.2226 89.0462 13.4371 89.1156 14.6516L96.0125 13.8258L96.2008 16.1673L89.3039 17.0126L89.294 17.0223ZM92.8911 9.5993C93.7334 10.4446 94.5261 11.3385 95.0612 12.4169L93.0992 13.5829C92.5641 12.5238 91.8605 11.5911 90.9984 10.7652L92.8911 9.5993Z" fill="#00A461"/>
<path d="M120.29 12.1446L122.441 14.3696C121.549 14.9428 121.321 15.0788 120.964 16.0893C119.071 21.5205 116.059 25.6693 110.52 28.9047L108.022 27.1364C113.284 24.6199 116.901 20.238 118.655 14.8262H112.392C111.084 16.7014 109.608 18.5863 107.765 19.9854L105.406 18.4697C108.587 16.2253 110.856 13.0385 112.204 9.48242L114.354 10.2888C115.098 10.5609 115.177 10.6095 115.177 10.7455C115.177 10.8621 115.088 10.9495 114.85 11.0467C114.681 11.1147 114.642 11.1633 114.572 11.2993C114.384 11.6685 114.077 12.2126 113.869 12.5818H119.27C119.765 12.5818 120.013 12.3778 120.3 12.1446H120.29Z" fill="#00A461"/>
<path d="M138.455 10.6097C138.455 10.7263 138.365 10.8429 138.197 10.9983C137.989 11.2024 137.989 11.3384 137.989 11.455V21.1321H135.323V10.2211L137.82 10.3571C138.237 10.3765 138.455 10.4057 138.455 10.6097ZM148.017 10.3279C148.017 10.4445 147.948 10.532 147.76 10.668C147.522 10.8332 147.482 10.9401 147.482 11.3578V12.4169C147.482 16.449 147.343 19.1792 147.016 20.9184C146.64 22.9587 145.451 25.0185 143.419 26.7188C142.389 27.5933 141.2 28.2345 139.981 28.8466L138.088 26.5537C139.842 25.9804 141.804 24.8825 142.993 23.3862C144.539 21.4819 144.767 18.9363 144.767 16.7599V9.91016L147.175 10.0267C147.74 10.0462 148.017 10.0948 148.017 10.3279Z" fill="#00A461"/>
<path d="M174.337 14.3215H168.629V23.6974H176.16V26.1458H158.343V23.6974H165.874V14.3215H160.285V11.873H174.337V14.3215Z" fill="#00A461"/>
<path d="M200.914 20.3063H184.127V17.7607H200.914V20.3063Z" fill="#00A461"/>
<path d="M211.318 28.8468L209.475 26.8259C212.537 25.8446 215.53 23.9597 217.353 21.7347C215.995 20.7243 214.598 19.811 213.052 19.1211L214.529 17.4208C216.045 18.0621 217.422 18.9365 218.78 19.8304C219.692 18.4119 220.445 16.8962 220.95 15.293H214.618C213.429 17.0808 212.002 18.8005 210.198 20.015L208.028 18.5673C211.368 16.2743 213.568 13.1361 214.876 9.37598L217.234 10.2893C217.631 10.4545 217.749 10.5225 217.749 10.6779C217.749 10.8625 217.561 10.9305 217.422 10.95C217.185 10.9985 217.076 11.086 216.768 11.6787C216.56 12.0867 216.253 12.66 216.025 13.0972H221.307C221.822 13.0972 222.308 12.7766 222.684 12.4559L224.696 14.2243C223.992 14.7781 223.735 15.1667 223.437 15.944C222.694 17.8192 221.852 19.5681 220.752 21.2392C221.426 21.793 222.11 22.3857 222.714 22.9589L220.94 25.0673C220.425 24.4261 219.87 23.7848 219.236 23.2796C216.967 25.8932 214.588 27.5449 211.338 28.8274L211.318 28.8468Z" fill="#00A461"/>
<path d="M249.539 20.3063H232.752V17.7607H249.539V20.3063Z" fill="#00A461"/>
<path d="M266.9 10.697C266.226 12.6013 265.423 14.4765 264.68 16.3614C265.919 17.6634 266.553 19.1305 266.553 20.9474C266.553 22.5311 266.107 23.4444 265.245 24.037C264.641 24.4451 263.818 24.6783 262.837 24.8629L261.787 22.5019C262.441 22.5019 262.837 22.5019 263.263 22.4145C263.848 22.2979 264.244 21.7927 264.244 20.6462C264.244 19.0625 263.382 17.5953 262.282 16.478C262.956 14.9234 263.541 13.3397 264.056 11.7366H261.598V28.8562H259.329V9.75454H265.622L266.91 10.697H266.9ZM267.326 9.68652H277.82V19.1305H276.492L278.296 20.685C278.434 20.8016 278.504 20.8696 278.504 20.9862C278.504 21.1708 278.296 21.2194 278.127 21.2194H277.939C277.562 21.2194 276.839 21.8412 276.512 22.1133C276.017 22.5019 275.462 22.9586 274.897 23.3472C276.225 24.6977 277.701 25.7762 279.406 26.6021L277.701 28.4578C275.204 26.8353 273.727 25.6402 272.112 23.0946C271.339 21.8801 270.943 20.5296 270.665 19.1305H269.665V25.1544C270.665 24.8823 271.696 24.5811 272.677 24.2605L272.746 26.3495C270.665 27.0587 268.565 27.7486 266.434 28.3412C266.157 28.4092 266.038 28.4578 265.939 28.6813C265.889 28.7979 265.82 28.8465 265.75 28.8465C265.582 28.8465 265.473 28.7104 265.334 28.3412L264.512 26.3495C265.443 26.1649 266.385 25.9608 267.316 25.7276V9.68652H267.326ZM275.481 13.4466V11.5909H269.665V13.4466H275.481ZM275.481 17.2261V15.2829H269.665V17.2261H275.481ZM272.746 19.1305C272.915 20.1409 273.242 21.0057 273.777 21.8801C274.738 21.0542 275.65 20.1604 276.373 19.1305H272.746Z" fill="#00A461"/>
<path d="M286.214 27.6133C288.434 25.2037 289.415 22.114 289.653 18.9272L291.922 19.1118C292.11 19.1312 292.526 19.1798 292.526 19.4324C292.526 19.481 292.437 19.5684 292.318 19.6656C292.179 19.7822 292.11 19.8502 292.061 20.0542C291.971 20.4915 291.823 21.3562 291.734 21.842C292.269 23.8823 293.061 24.9317 295.073 25.7575V17.2074H289.791V15.2351H302.624V17.2074H297.55V19.9376H304.467V22.114H297.55V26.4474C298.393 26.4959 299.205 26.5154 300.048 26.5154C302.148 26.5154 304.259 26.3988 306.36 26.1947L305.468 28.7403H301.494C300.117 28.7403 298.155 28.6918 296.886 28.6043C295.836 28.5363 294.736 28.2351 293.844 27.7785C292.536 27.1178 291.644 25.9907 290.901 24.7568C290.297 26.2725 289.524 27.6424 288.424 28.8569L286.204 27.623L286.214 27.6133ZM289.038 13.3599V15.8569H286.63V11.3196H294.974V9.25977L297.55 9.34721C297.739 9.34721 298.185 9.34721 298.185 9.53181C298.185 9.58039 298.095 9.69699 297.858 9.92045C297.768 10.0079 297.719 10.0565 297.719 10.1536V11.3196H305.924V15.9249H303.516V13.3599H289.048H289.038Z" fill="#00A461"/>
</g>
<defs>
<clipPath id="clip0_320_525">
<rect width="326" height="39" fill="white"/>
</clipPath>
</defs>
</svg>
